<svg xmlns="http://www.w3.org/2000/svg" xmlns:xlink="http://www.w3.org/1999/xlink" width="491" height="117" stroke="#000" stroke-linecap="round" stroke-linejoin="round" fill="#fff" fill-rule="evenodd"><g stroke="none" fill-rule="nonzero"><path d="M36.4 2.1c.6.1.8.4.8.9v2.7c0 .6-.2 1-.8 1H18.8C10.9 6.7 7 9.1 7 14.8v1.3c0 4.4 1 6.8 6.6 9l18.2 7.7c7.4 3.3 8.6 8.6 8.6 13.5v2.4C40.4 61 30.5 62 20.2 62c-5.7 0-13.4-.2-19.4-.9-.6 0-.8-.3-.8-1v-2.6c0-.6.4-.9 1-.9h21.2c7.3 0 12.2-1.6 12.2-8v-1.8c0-3.6-.8-7.2-6.2-9.5L8.6 29.2C2 26.5 1 21.8 1 16.2v-1.8C1 3 9.9 1.2 20.9 1.2c5.5.1 9.5.4 15.5.9zm49.2 36.3v2.4c0 1.4-.2 2-2.5 2H57c.2 11.1 2.2 14 11.6 14h12.6c.6 0 1 .3 1 1v2.5c0 .6-.3 1-1 1-3.8.4-8.6.6-12.6.6-14.5.1-17.4-4.3-17.4-22s3-22 17.4-22c13.7 0 16.9 4.1 17 20.5zM57 37.6h22.8c-.2-11.8-2-14.6-11.2-14.6-9.7 0-11.4 2.9-11.6 14.6zm76-1.5v24.4c0 .7-.5 1-1.2 1h-3.6c-.7 0-1-.3-1-1V36.1c0-12.4-3-13.1-11-13.1h-12.4v37.5c0 .7-.3 1-1 1H99c-.7 0-1-.3-1-1V20c0-.8.3-1 1-1 6.2-1.1 12.4-1.1 16.2-1.1 13.2 0 17.8 1.7 17.8 18.2zm20.8-29.9c.8-.2 1.2.1 1.2.9v11.2h8.9c.6 0 1 .4 1 1v2.8c0 .6-.4 1-1 1H155v29.3c0 3.6 1 4.5 5.2 4.5h4.2c.8 0 1.1.2 1.1 1v2.7c0 .6-.3.9-1 1-1.4.3-3.8.4-4.3.4-5.5 0-11.1-.4-11.1-8.4V23.1h-4.5c-.7 0-1-.3-1-1v-2.8c0-.6.3-1 1-1h4.5V8.1c0-.6.3-.9.9-1l3.8-.9zm28.7-.2c0 2.5-1.3 3.8-3.7 3.8-2.5 0-3.8-1.4-3.8-3.8s1.4-3.7 3.8-3.7c2.4.1 3.7 1.3 3.7 3.7zm-1.8 12.3c.6 0 1 .4 1 1v41.2c0 .7-.4 1-1 1h-3.8c-.7 0-1-.3-1-1V19.3c0-.6.3-1 1-1h3.8zm50.7 17.8v24.4c0 .7-.5 1-1.2 1h-3.6c-.7 0-1-.3-1-1V36.1c0-12.4-3-13.1-11-13.1h-12.4v37.5c0 .7-.3 1-1 1h-3.8c-.7 0-1-.3-1-1V20c0-.8.3-1 1-1 6.2-1.1 12.4-1.1 16.2-1.1 13.2 0 17.8 1.7 17.8 18.2zm47.5 2.3v2.4c0 1.4-.2 2-2.5 2h-26.2c.2 11.1 2.2 14.1 11.6 14.1h12.6c.6 0 1 .3 1 1v2.5c0 .6-.3 1-1 1-3.8.4-8.6.6-12.6.6-14.5 0-17.4-4.4-17.4-22.1s3-22 17.4-22c13.8 0 17 4.1 17.1 20.5zm-28.6-.8h22.8c-.2-11.8-2-14.6-11.2-14.6-9.7 0-11.5 2.9-11.6 14.6zm45.9-35.9c.6 0 1 .3 1 1v57.8c0 .7-.4 1-1 1h-3.8c-.6 0-1-.3-1-1V2.7c0-.6.4-1 1-1h3.8zM342.9.4c.8 0 1.2.4 1.2 1.2v51h27.7c.8 0 1.2.4 1.2 1.2v6.6c0 .8-.4 1.2-1.2 1.2H335c-.8 0-1.2-.4-1.2-1.2V1.6c0-.8.4-1.2 1.2-1.2h7.9zM432.4 31c0 21.8-7 31-25.4 31-7.4 0-16.2-.2-22.6-.7-1-.1-1.2-.2-1.2-1V1.7c0-.9.2-1 1.2-1.1C390.8.1 399.6 0 407 0c18.4 0 25.4 9.1 25.4 31zM393.5 8.9V53h13.4c11 0 15-6.6 15-22s-4.2-22.1-15.8-22.1h-12.6zM487.9.4c1.4 0 1.4.7.7 1.5l-22.3 26.7 24.2 30.8c.7 1 .8 2.2-1.4 2.2h-8.6c-.8 0-1.4-.3-1.8-.9l-23.2-29.8v29.4c0 .8-.4 1.2-1.2 1.2h-7.9c-.8 0-1.2-.4-1.2-1.2V1.6c0-.8.4-1.2 1.2-1.2h7.9c.8 0 1.2.4 1.2 1.2v25.2l21.8-25.7c.4-.5 1-.8 1.7-.8h8.9zM131.4717 78.3006v26.6396h14.1504v3.2198h-18.1084V78.3006h3.958z"/><use xlink:href="#B"/><path d="M168.6114 105.4735q2.0302 0 3.5478-1.2305 1.5176-1.2305 1.6817-3.0762h3.5888q-.1025 1.9073-1.3125 3.6299-1.2099 1.7227-3.23 2.7481-2.02 1.0254-4.2758 1.0254-4.5323 0-7.2085-3.0249-2.6763-3.0249-2.6763-8.2749v-.6358q0-3.2402 1.1895-5.7627 1.1894-2.5224 3.4145-3.917 2.2251-1.3945 5.2603-1.3945 3.7324 0 6.2036 2.2354 2.4712 2.2353 2.6352 5.8037h-3.5888q-.1641-2.1534-1.6304-3.5376-1.4663-1.3843-3.6196-1.3843-2.8916 0-4.481 2.0815-1.5894 2.0816-1.5894 6.0191v.7177q0 3.835 1.5791 5.9063 1.5791 2.0713 4.5118 2.0713zm22.292 3.0967q-4.5117 0-7.3418-2.9634-2.8301-2.9634-2.8301-7.9263v-.6972q0-3.3018 1.2612-5.896 1.2613-2.5943 3.5274-4.0606 2.2661-1.4663 4.9116-1.4663 4.3271 0 6.7266 2.8506 2.3994 2.8506 2.3994 8.1621v1.5791h-15.0323q.0821 3.2812 1.9175 5.3013 1.8355 2.02 4.6656 2.02 2.0097 0 3.4043-.8203 1.3945-.8203 2.4404-2.1739l2.3174 1.8047q-2.7891 4.2862-8.3672 4.2862zm-.4717-19.8926q-2.2969 0-3.8555 1.6714-1.5586 1.6714-1.9277 4.686h11.1152v-.2871q-.164-2.8916-1.5586-4.481-1.3945-1.5893-3.7734-1.5893z"/><use xlink:href="#C"/><path d="M240.0402 102.2743q0-1.5381-1.1587-2.3892-1.1587-.8511-4.0401-1.4663-2.8813-.6152-4.5732-1.4766-1.6919-.8613-2.502-2.0507-.81-1.1895-.81-2.8301 0-2.7276 2.3071-4.6143 2.3071-1.8867 5.896-1.8867 3.7735 0 6.1216 1.9482 2.3481 1.9483 2.3481 4.9834h-3.8144q0-1.5586-1.3228-2.6865-1.3227-1.1279-3.3325-1.1279-2.0713 0-3.2402.9023-1.169.9024-1.169 2.3584 0 1.3741 1.0869 2.0713 1.087.6973 3.9273 1.333 2.8403.6358 4.604 1.5176 1.7637.8818 2.6147 2.1226.8511 1.2407.8511 3.0249 0 2.9736-2.3789 4.768-2.3789 1.7945-6.1728 1.7945-2.6661 0-4.7168-.9434-2.0508-.9434-3.2095-2.6352-1.1587-1.6919-1.1587-3.6607h3.7939q.1026 1.9072 1.5279 3.0249 1.4253 1.1177 3.7632 1.1177 2.1533 0 3.4555-.8716 1.3023-.8716 1.3023-2.3276z"/><use xlink:href="#B" x="99.2578"/><use xlink:href="#C" x="55.0224"/><path d="M281.2403 96.8806q0-5.1885 2.3994-8.2544 2.3994-3.0659 6.3574-3.0659 4.0606 0 6.337 2.8711l.1845-2.4609h3.4658v21.6562q0 4.3066-2.5532 6.7881-2.5532 2.4814-6.8598 2.4814-2.3995 0-4.6963-1.0254-2.2969-1.0253-3.5069-2.8095l1.9688-2.2764q2.4404 3.0147 5.9678 3.0147 2.7685 0 4.3168-1.5586 1.5484-1.5586 1.5484-4.3887v-1.9072q-2.2764 2.625-6.2139 2.625-3.8965 0-6.3061-3.1377-2.4097-3.1377-2.4097-8.5518zm3.8145.4307q0 3.7529 1.538 5.896 1.5381 2.143 4.3067 2.143 3.5888 0 5.2705-3.2607V91.9587q-1.7432-3.1787-5.2295-3.1787-2.7686 0-4.3272 2.1533-1.5585 2.1534-1.5585 6.378zm49.0751 10.8487l-6.4804-12.0791h-7.0137V108.16h-3.958V78.3006h9.8848q5.0449 0 7.7622 2.2969 2.7173 2.2969 2.7173 6.6855 0 2.7891-1.5074 4.8604-1.5073 2.0713-4.1938 3.0967l7.0137 12.6738v.2461h-4.2247zm-13.4941-26.6192v11.3203h6.0498q2.9326 0 4.6655-1.5175 1.733-1.5176 1.733-4.0606 0-2.7685-1.6509-4.2451-1.6509-1.4766-4.7681-1.4971h-6.0293zm38.8008 9.5977v3.2197h-12.9404v10.582h15.0322v3.2198h-18.9697V78.3006h18.7646v3.2402h-14.8271v9.5977h12.9404zm15.791 3.7119q-5.0654-1.4561-7.3725-3.5787-2.3071-2.1225-2.3071-5.2397 0-3.5273 2.8198-5.8345 2.8198-2.3071 7.3315-2.3071 3.0762 0 5.4859 1.1895 2.4096 1.1894 3.7324 3.2812 1.3227 2.0918 1.3227 4.5732h-3.958q0-2.707-1.7226-4.2553-1.7227-1.5484-4.8604-1.5484-2.9121 0-4.5425 1.2818-1.6303 1.2817-1.6303 3.5581 0 1.8252 1.5483 3.0864 1.5484 1.2612 5.2705 2.3071 3.7222 1.0459 5.8242 2.3072 2.1021 1.2612 3.1172 2.9428 1.0152 1.6817 1.0152 3.958 0 3.6299-2.8301 5.814-2.8301 2.1841-7.5674 2.1841-3.0762 0-5.7422-1.1792-2.666-1.1792-4.1118-3.23-1.4458-2.0508-1.4458-4.6553h3.958q0 2.7071 1.9995 4.2759 1.9995 1.5689 5.3423 1.5689 3.1172 0 4.7783-1.2715 1.6612-1.2715 1.6612-3.4658 0-2.1944-1.5381-3.3941-1.5381-1.1997-5.5782-2.3686zm36.75-16.5498v3.2402h-9.5977V108.16h-3.917V81.5408h-9.5771v-3.2402h23.0918zm33.3458 29.8594l-2.8506-7.793H429.963l-2.8096 7.793h-4.0605l11.4023-29.8594h3.4454l11.4228 29.8594h-4.04zm-9.1055-24.999l-5.0654 13.9658h10.1513l-5.0859-13.9658zm28.1367 13.3095h-7.0342V108.16h-3.9375V78.3006h11.0127q4.9014 0 7.6802 2.502 2.7788 2.5019 2.7788 6.624 0 4.3476-2.7173 6.6958-2.7173 2.3481-7.7827 2.3481zm-7.0342-14.9297v11.71h7.0752q3.1582 0 4.8398-1.4868 1.6817-1.4868 1.6817-4.2964 0-2.666-1.6817-4.2656-1.6816-1.5996-4.6142-1.6612h-7.3008zm26.7832-3.2402V108.16h-3.9375V78.3006h3.9375z"/></g><defs ><path id="B" d="M153.6407 85.9705v22.1894h-3.794V85.9705h3.794zm-4.1016-5.8858q0-.9228.564-1.5586.5639-.6357 1.6714-.6357 1.1074 0 1.6816.6357.5742.6358.5742 1.5586 0 .9229-.5742 1.5381-.5742.6153-1.6816.6153-1.1075 0-1.6714-.6153-.564-.6152-.564-1.5381z"/><path id="C" d="M203.9464 85.9706h3.5889l.123 2.789q2.543-3.1992 6.6445-3.1992 7.0342 0 7.0957 7.9365V108.16h-3.7939V93.4764q-.0205-2.3994-1.0972-3.5478-1.0766-1.1485-3.353-1.1485-1.8457 0-3.2402.9844-1.3946.9844-2.1739 2.584V108.16h-3.7939V85.9706z"/></defs></svg>